<?xml version="1.0" standalone="no"?>
<!DOCTYPE svg PUBLIC "-//W3C//DTD SVG 20010904//EN"
 "http://www.w3.org/TR/2001/REC-SVG-20010904/DTD/svg10.dtd">
<svg version="1.0" xmlns="http://www.w3.org/2000/svg"
 width="124.000000pt" height="148.000000pt" viewBox="0 0 124.000000 148.000000"
 preserveAspectRatio="xMidYMid meet">

<g transform="translate(0.000000,148.000000) scale(0.100000,-0.100000)"
fill="#000000" stroke="none">
<path d="M710 1449 c-30 -4 -66 -12 -80 -18 l-25 -10 30 0 c25 -1 19 -6 -43
-36 -144 -69 -245 -155 -344 -296 -66 -92 -138 -246 -170 -363 -21 -75 -27
-88 -22 -51 18 167 124 386 253 527 67 74 160 147 236 187 33 17 49 29 35 25
-114 -29 -292 -179 -394 -333 -111 -165 -153 -298 -163 -511 -7 -148 4 -212
53 -309 93 -186 297 -277 511 -226 232 55 461 275 564 540 90 231 95 483 14
650 -32 67 -116 149 -188 186 -47 24 -175 53 -207 47 -3 0 -30 -4 -60 -9z m30
-212 c0 -7 -26 -28 -57 -46 -185 -109 -323 -291 -381 -505 -21 -77 -37 -93
-47 -47 -16 72 51 252 139 376 84 117 238 235 309 235 23 0 37 -5 37 -13z
m316 -704 c-13 -26 -32 -57 -41 -68 -9 -11 1 12 22 52 21 39 39 70 41 68 2 -2
-8 -25 -22 -52z m-87 -140 c-65 -85 -164 -179 -214 -204 -11 -6 -4 2 15 17 19
15 73 66 120 115 83 86 106 107 79 72z m-273 -238 c-11 -8 -25 -15 -30 -15 -6
1 0 7 14 15 32 19 40 18 16 0z"/>
</g>
</svg>
