<?xml version="1.0" standalone="no"?>
<!DOCTYPE svg PUBLIC "-//W3C//DTD SVG 20010904//EN"
 "http://www.w3.org/TR/2001/REC-SVG-20010904/DTD/svg10.dtd">
<svg version="1.0" xmlns="http://www.w3.org/2000/svg"
 width="338.000000pt" height="268.000000pt" viewBox="0 0 338.000000 268.000000"
 preserveAspectRatio="xMidYMid meet">

<g transform="translate(0.000000,268.000000) scale(0.100000,-0.100000)"
fill="#000000" stroke="none">
<path d="M1515 2650 c-141 -29 -304 -107 -390 -186 l-60 -55 79 52 c159 104
291 153 476 174 40 4 51 3 40 -4 -8 -6 -31 -11 -51 -11 -100 0 -300 -74 -410
-152 -121 -85 -197 -170 -325 -364 -189 -287 -271 -391 -479 -609 -88 -92
-225 -276 -265 -354 -36 -70 -50 -76 -24 -10 51 127 225 351 383 493 78 70
298 373 400 551 l23 40 -22 -20 c-24 -22 -103 -131 -129 -179 -38 -72 -184
-255 -325 -409 -157 -171 -187 -209 -277 -357 -49 -80 -65 -112 -97 -200 -35
-98 -42 -148 -42 -291 0 -129 2 -147 30 -232 17 -51 44 -114 60 -142 16 -27
34 -59 39 -70 5 -11 44 -55 87 -98 61 -59 100 -88 169 -122 49 -25 94 -45 101
-45 6 0 25 -7 42 -16 37 -18 232 -25 321 -11 53 8 236 65 296 92 35 16 247 87
320 106 34 10 105 14 220 13 171 -1 206 -6 325 -48 25 -9 53 -16 63 -16 9 0
17 -4 17 -8 0 -4 21 -14 48 -21 26 -8 52 -17 57 -20 33 -20 216 -79 298 -97
81 -17 190 -18 273 -3 71 12 124 30 124 41 0 4 10 8 22 8 41 0 143 68 218 147
84 86 120 134 120 158 0 8 5 15 10 15 6 0 10 9 10 20 0 11 5 20 10 20 6 0 10
9 10 19 0 11 5 23 10 26 6 3 10 17 10 30 0 13 4 26 8 29 21 13 35 149 29 284
-5 110 -11 153 -31 212 -27 81 -96 222 -124 255 -10 11 -24 33 -32 49 -18 36
-80 106 -225 256 -160 165 -231 257 -431 565 -150 229 -254 330 -435 418 -138
67 -232 87 -399 86 -74 -1 -153 -5 -175 -9z m130 -232 c71 -19 64 -24 -80 -59
-94 -23 -263 -119 -326 -186 -58 -61 -137 -170 -206 -282 -67 -109 -165 -248
-205 -291 -13 -13 -37 -43 -54 -67 -17 -24 -88 -102 -157 -175 -127 -135 -209
-232 -248 -295 -39 -63 -66 -15 -30 55 34 66 119 172 268 333 211 229 207 223
481 644 111 169 209 247 382 303 110 35 115 36 175 20z m605 -784 c29 -29 29
-78 0 -109 l-23 -25 -537 0 -537 0 -23 25 c-39 42 -27 104 25 126 11 4 257 7
547 6 520 -2 528 -2 548 -23z m-4 -339 c37 -34 37 -80 0 -111 l-26 -23 -529
-1 -530 0 -27 23 c-37 33 -38 81 0 114 l27 23 529 0 529 0 27 -25z m1 -338
c11 -12 22 -29 25 -38 9 -25 -19 -78 -46 -89 -15 -5 -236 -10 -536 -10 -555 0
-559 0 -580 55 -11 29 -5 52 23 83 l21 22 536 0 537 -1 20 -22z m983 -495 c0
-5 -7 -17 -15 -28 -14 -18 -14 -17 -4 9 12 27 19 34 19 19z m-40 -71 c-5 -11
-15 -23 -21 -27 -6 -3 -3 5 6 20 20 30 30 35 15 7z m-50 -70 c-26 -38 -102
-103 -152 -131 -53 -30 -48 -18 6 14 25 14 71 53 103 85 32 33 59 60 61 60 2
1 -6 -12 -18 -28z m-1627 -8 c-7 -2 -19 -2 -25 0 -7 3 -2 5 12 5 14 0 19 -2
13 -5z m-56 -9 c-3 -3 -12 -4 -19 -1 -8 3 -5 6 6 6 11 1 17 -2 13 -5z m-142
-43 c-60 -21 -168 -59 -240 -86 -148 -53 -249 -75 -350 -73 -65 1 -63 1 30 9
124 9 192 26 365 91 161 61 269 97 290 97 8 0 -34 -17 -95 -38z m1570 -122
c-22 -10 -47 -18 -55 -18 -8 0 5 8 30 19 59 24 76 24 25 -1z m-82 -26 c-7 -2
-19 -2 -25 0 -7 3 -2 5 12 5 14 0 19 -2 13 -5z"/>
<path d="M969 2303 c-13 -16 -12 -17 4 -4 9 7 17 15 17 17 0 8 -8 3 -21 -13z"/>
<path d="M920 2245 c-7 -9 -10 -18 -7 -21 3 -3 10 4 17 15 13 25 8 27 -10 6z"/>
</g>
</svg>
