<?xml version="1.0" standalone="no"?>
<!DOCTYPE svg PUBLIC "-//W3C//DTD SVG 20010904//EN"
 "http://www.w3.org/TR/2001/REC-SVG-20010904/DTD/svg10.dtd">
<svg version="1.0" xmlns="http://www.w3.org/2000/svg"
 width="125.000000pt" height="147.000000pt" viewBox="0 0 125.000000 147.000000"
 preserveAspectRatio="xMidYMid meet">

<g transform="translate(0.000000,147.000000) scale(0.100000,-0.100000)"
fill="#000000" stroke="none">
<path d="M511 1446 c3 -4 26 -12 50 -19 42 -13 38 -13 -57 -9 -122 5 -185 -10
-272 -68 -69 -46 -129 -127 -158 -212 -18 -51 -18 -52 -24 -23 -13 62 -33
-105 -27 -222 8 -167 65 -332 173 -500 50 -78 168 -198 250 -252 85 -57 151
-84 268 -108 71 -14 95 -15 151 -6 172 30 300 150 346 325 23 88 25 257 4 355
-77 365 -367 684 -670 738 -22 4 -37 4 -34 1z m-45 -165 c-3 -5 20 -24 51 -42
l58 -33 -86 -7 c-48 -4 -101 -14 -118 -23 -32 -17 -85 -82 -96 -117 -9 -26
-20 -24 -34 7 -15 33 0 92 34 132 13 16 22 32 18 35 -11 12 101 57 140 57 21
0 36 -4 33 -9z m124 -21 c8 -5 11 -10 5 -10 -5 0 -17 5 -25 10 -8 5 -10 10 -5
10 6 0 17 -5 25 -10z m-328 -65 c-19 -21 -39 -62 -52 -107 -28 -95 -31 -102
-24 -48 10 72 69 190 96 190 5 0 -4 -16 -20 -35z m835 -902 c-29 -54 -96 -120
-159 -153 -54 -29 -74 -34 -143 -36 l-80 -3 65 8 c135 16 230 68 288 160 38
60 55 74 29 24z"/>
</g>
</svg>
