<?xml version="1.0" standalone="no"?>
<!DOCTYPE svg PUBLIC "-//W3C//DTD SVG 20010904//EN"
 "http://www.w3.org/TR/2001/REC-SVG-20010904/DTD/svg10.dtd">
<svg version="1.0" xmlns="http://www.w3.org/2000/svg"
 width="122.000000pt" height="251.000000pt" viewBox="0 0 122.000000 251.000000"
 preserveAspectRatio="xMidYMid meet">

<g transform="translate(0.000000,251.000000) scale(0.100000,-0.100000)"
fill="#000000" stroke="none">
<path d="M615 2480 c-18 -8 -18 -9 5 -10 16 0 2 -8 -41 -23 -92 -31 -171 -82
-242 -154 -138 -140 -219 -310 -268 -560 l-19 -98 5 85 c3 72 23 174 50 255 4
13 1 12 -8 -5 -8 -14 -27 -68 -41 -120 -88 -325 -34 -631 145 -825 154 -167
417 -195 619 -64 150 97 255 246 328 467 39 117 55 225 55 377 -1 343 -157
607 -398 669 -64 17 -158 20 -190 6z m62 -156 c-3 -3 -12 -4 -19 -1 -8 3 -5 6
6 6 11 1 17 -2 13 -5z m-96 -23 c-10 -7 1 -9 34 -8 28 1 50 -3 52 -9 2 -7 -32
-37 -75 -67 -103 -72 -149 -126 -205 -239 -57 -115 -82 -197 -98 -321 -7 -54
-17 -97 -21 -97 -28 0 -29 198 0 313 16 64 17 75 4 65 -40 -34 31 117 97 204
53 70 102 113 166 146 40 21 73 30 46 13z m536 -693 c-3 -8 -6 -5 -6 6 -1 11
2 17 5 13 3 -3 4 -12 1 -19z m-10 -50 c-3 -8 -6 -5 -6 6 -1 11 2 17 5 13 3 -3
4 -12 1 -19z m-41 -133 c-19 -53 -54 -129 -77 -169 -76 -128 -222 -253 -329
-281 -14 -3 11 12 56 34 154 76 289 251 355 459 13 41 25 69 27 64 1 -5 -13
-53 -32 -107z"/>
<path d="M398 2153 c-18 -21 -31 -43 -25 -43 2 0 13 14 25 30 25 33 24 41 0
13z"/>
</g>
</svg>
