<?xml version="1.0" standalone="no"?>
<!DOCTYPE svg PUBLIC "-//W3C//DTD SVG 20010904//EN"
 "http://www.w3.org/TR/2001/REC-SVG-20010904/DTD/svg10.dtd">
<svg version="1.0" xmlns="http://www.w3.org/2000/svg"
 width="122.000000pt" height="166.000000pt" viewBox="0 0 122.000000 166.000000"
 preserveAspectRatio="xMidYMid meet">

<g transform="translate(0.000000,166.000000) scale(0.100000,-0.100000)"
fill="#000000" stroke="none">
<path d="M555 1626 l40 -13 -83 -5 c-248 -18 -429 -241 -461 -571 l-8 -82 -3
95 c-2 83 -4 89 -11 50 -19 -108 -6 -317 27 -440 83 -307 243 -514 462 -599
297 -117 575 48 668 395 28 104 26 356 -4 482 -91 391 -334 670 -607 696 l-60
5 40 -13z m-15 -156 c-41 -6 -43 -7 -18 -14 14 -4 34 -16 44 -27 19 -21 24
-18 -71 -44 -84 -23 -139 -82 -183 -196 -18 -46 -37 -110 -44 -141 -19 -100
-38 -70 -38 59 0 48 -2 84 -5 81 -3 -3 -12 -36 -19 -74 -9 -45 -14 -58 -15
-37 -4 138 98 321 211 377 42 21 65 26 117 24 63 -1 64 -1 21 -8z m77 -6 c-3
-3 -12 -4 -19 -1 -8 3 -5 6 6 6 11 1 17 -2 13 -5z m-430 -486 c-2 -13 -4 -5
-4 17 -1 22 1 32 4 23 2 -10 2 -28 0 -40z m940 -390 c-3 -8 -6 -5 -6 6 -1 11
2 17 5 13 3 -3 4 -12 1 -19z m-27 -121 c-59 -196 -192 -334 -340 -352 -45 -5
-45 -5 10 10 162 46 282 182 328 372 9 40 18 66 20 57 2 -8 -6 -47 -18 -87z"/>
</g>
</svg>
